<svg width="124" height="124" viewBox="0 0 124 124" fill="none" xmlns="http://www.w3.org/2000/svg">
<path fill-rule="evenodd" clip-rule="evenodd" d="M81 61.9101C81.3348 62.2349 81.3429 62.7696 81.0181 63.1044L55.3441 89.5679C55.0193 89.9027 54.4846 89.9108 54.1498 89.586C53.815 89.2612 53.8069 88.7265 54.1317 88.3917L79.8057 61.9282C80.1305 61.5934 80.6652 61.5853 81 61.9101Z" fill="white" stroke="white" stroke-width="2.5" stroke-linecap="round" stroke-linejoin="round"/>
<path fill-rule="evenodd" clip-rule="evenodd" d="M81 63.0758C81.3348 62.751 81.3429 62.2163 81.0181 61.8815L55.3441 35.4179C55.0193 35.0832 54.4846 35.0751 54.1498 35.3999C53.815 35.7247 53.8069 36.2594 54.1317 36.5942L79.8057 63.0577C80.1305 63.3925 80.6652 63.4006 81 63.0758Z" fill="white" stroke="white" stroke-width="2.5" stroke-linecap="round" stroke-linejoin="round"/>
<path fill-rule="evenodd" clip-rule="evenodd" d="M54.4956 89.8011C54.9621 89.8011 55.3403 89.423 55.3403 88.9565L55.3443 35.6977C55.3443 35.2312 54.9662 34.853 54.4998 34.853C54.0333 34.8529 53.6551 35.231 53.6551 35.6975L53.6511 88.9564C53.6511 89.4228 54.0292 89.801 54.4956 89.8011Z" fill="white" stroke="white" stroke-width="2.5" stroke-linecap="round" stroke-linejoin="round"/>
<circle cx="62" cy="62" r="59.5" stroke="white" stroke-width="5"/>
</svg>
