<svg width="72" height="71" viewBox="0 0 72 71" fill="none" xmlns="http://www.w3.org/2000/svg">
<path d="M69.0905 36.9692L37.1007 52.1508C36.6071 52.385 36.0352 52.3893 35.5381 52.1624L2.25781 36.9692M69.0905 19.0114V52.9976C69.0905 53.7219 68.668 54.3797 68.0093 54.6811L37.0855 68.8285C36.6004 69.0532 36.0419 69.0573 35.5537 68.8397L3.53716 54.4917C2.8714 54.1933 2.44294 53.5318 2.44294 52.8023V19.3816M68.1789 20.829L37.0921 35.3145C36.6033 35.5422 36.0394 35.5455 35.548 35.3235L3.48399 20.8378C2.04842 20.1892 2.02722 18.1581 3.44894 17.4798L35.5124 2.18046C36.0237 1.93645 36.6187 1.94006 37.1271 2.19026L68.2145 17.4898C69.6094 18.1763 69.5881 20.1723 68.1789 20.829Z" stroke="white" stroke-width="4" stroke-linejoin="round"/>
</svg>
