<svg width="210" height="210" viewBox="0 0 210 210" fill="none" xmlns="http://www.w3.org/2000/svg">
    <path fill-rule="evenodd" clip-rule="evenodd" d="M137.182 104.848C137.749 105.398 137.763 106.303 137.213 106.87L93.7325 151.688C93.1824 152.255 92.2768 152.268 91.7099 151.718C91.1429 151.168 91.1291 150.263 91.6792 149.696L135.159 104.878C135.709 104.311 136.615 104.298 137.182 104.848Z" fill="white" stroke="white" stroke-width="4" stroke-linecap="round" stroke-linejoin="round"/>
    <path fill-rule="evenodd" clip-rule="evenodd" d="M137.182 106.822C137.749 106.272 137.763 105.366 137.213 104.799L93.7325 59.982C93.1824 59.415 92.2768 59.4013 91.7099 59.9514C91.1429 60.5015 91.1291 61.407 91.6792 61.974L135.159 106.791C135.709 107.358 136.615 107.372 137.182 106.822Z" fill="white" stroke="white" stroke-width="4" stroke-linecap="round" stroke-linejoin="round"/>
    <path fill-rule="evenodd" clip-rule="evenodd" d="M92.2929 152.082C93.0828 152.083 93.7233 151.442 93.7234 150.652L93.7301 60.4558C93.7302 59.6658 93.0899 59.0253 92.2999 59.0252C91.5099 59.0252 90.8694 59.6655 90.8694 60.4555L90.8626 150.652C90.8626 151.442 91.5029 152.082 92.2929 152.082Z" fill="white" stroke="white" stroke-width="4" stroke-linecap="round" stroke-linejoin="round"/>
    <circle cx="105" cy="105" r="101" stroke="white" stroke-width="8"/>
</svg>
